<mxfile host="app.diagrams.net" modified="2022-10-20T19:27:25.253Z" agent="5.0 (Windows NT 10.0; Win64; x64) AppleWebKit/537.36 (KHTML, like Gecko) Chrome/104.0.0.0 Safari/537.36" etag="Ff4zVT_wrbf70aZ5aV9E" version="20.4.1" type="github">
  <diagram name="Page-1" id="58cdce13-f638-feb5-8d6f-7d28b1aa9fa0">
    <mxGraphModel dx="1778" dy="993" grid="1" gridSize="10" guides="1" tooltips="1" connect="1" arrows="1" fold="1" page="1" pageScale="1" pageWidth="1100" pageHeight="850" background="none" math="0" shadow="0">
      <root>
        <mxCell id="0" />
        <mxCell id="1" parent="0" />
        <mxCell id="382b91b5511bd0f7-1" value="" style="ellipse;html=1;shape=startState;fillColor=#000000;strokeColor=#ff0000;rounded=1;shadow=0;comic=0;labelBackgroundColor=none;fontFamily=Verdana;fontSize=12;fontColor=#000000;align=center;direction=south;" parent="1" vertex="1">
          <mxGeometry x="40" y="135" width="30" height="30" as="geometry" />
        </mxCell>
        <mxCell id="xWgYyd1IFgnipg2OSd_u-1" value="" style="edgeStyle=orthogonalEdgeStyle;rounded=0;orthogonalLoop=1;jettySize=auto;html=1;" edge="1" parent="1" source="382b91b5511bd0f7-6" target="382b91b5511bd0f7-7">
          <mxGeometry relative="1" as="geometry" />
        </mxCell>
        <mxCell id="382b91b5511bd0f7-6" value="0&lt;br&gt;Sem permissão para iniciar o ciclo" style="rounded=1;whiteSpace=wrap;html=1;arcSize=24;fillColor=#ffffc0;strokeColor=#ff0000;shadow=0;comic=0;labelBackgroundColor=none;fontFamily=Verdana;fontSize=12;fontColor=#000000;align=center;" parent="1" vertex="1">
          <mxGeometry x="150" y="120" width="120" height="60" as="geometry" />
        </mxCell>
        <mxCell id="xWgYyd1IFgnipg2OSd_u-7" value="" style="edgeStyle=orthogonalEdgeStyle;rounded=0;orthogonalLoop=1;jettySize=auto;html=1;fontSize=20;" edge="1" parent="1" source="382b91b5511bd0f7-7" target="xWgYyd1IFgnipg2OSd_u-6">
          <mxGeometry relative="1" as="geometry" />
        </mxCell>
        <mxCell id="382b91b5511bd0f7-7" value="1&lt;br&gt;Standby" style="rounded=1;whiteSpace=wrap;html=1;arcSize=24;fillColor=#ffffc0;strokeColor=#ff0000;shadow=0;comic=0;labelBackgroundColor=none;fontFamily=Verdana;fontSize=12;fontColor=#000000;align=center;" parent="1" vertex="1">
          <mxGeometry x="350" y="120" width="120" height="60" as="geometry" />
        </mxCell>
        <mxCell id="2a3bc250acf0617d-9" style="edgeStyle=orthogonalEdgeStyle;html=1;labelBackgroundColor=none;endArrow=open;endSize=8;strokeColor=#ff0000;fontFamily=Verdana;fontSize=12;align=left;" parent="1" source="382b91b5511bd0f7-1" target="382b91b5511bd0f7-6" edge="1">
          <mxGeometry relative="1" as="geometry" />
        </mxCell>
        <mxCell id="xWgYyd1IFgnipg2OSd_u-2" value="Esteira 1" style="text;html=1;strokeColor=none;fillColor=none;align=center;verticalAlign=middle;whiteSpace=wrap;rounded=0;fontSize=20;" vertex="1" parent="1">
          <mxGeometry x="930" y="30" width="120" height="30" as="geometry" />
        </mxCell>
        <mxCell id="xWgYyd1IFgnipg2OSd_u-3" value="Esteira 3" style="text;html=1;strokeColor=none;fillColor=none;align=center;verticalAlign=middle;whiteSpace=wrap;rounded=0;fontSize=20;" vertex="1" parent="1">
          <mxGeometry x="730" y="460" width="120" height="30" as="geometry" />
        </mxCell>
        <mxCell id="24f968d109e7d6b4-3" value="" style="ellipse;html=1;shape=endState;fillColor=#000000;strokeColor=#ff0000;rounded=1;shadow=0;comic=0;labelBackgroundColor=none;fontFamily=Verdana;fontSize=12;fontColor=#000000;align=center;" parent="1" vertex="1">
          <mxGeometry x="140" y="20" width="30" height="30" as="geometry" />
        </mxCell>
        <mxCell id="3cde6dad864a17aa-12" style="edgeStyle=elbowEdgeStyle;html=1;labelBackgroundColor=none;endArrow=open;endSize=8;strokeColor=#ff0000;fontFamily=Verdana;fontSize=12;align=left;" parent="1" target="24f968d109e7d6b4-3" edge="1">
          <mxGeometry relative="1" as="geometry">
            <mxPoint x="30" y="35" as="sourcePoint" />
          </mxGeometry>
        </mxCell>
        <mxCell id="xWgYyd1IFgnipg2OSd_u-4" value="Esteira 2" style="text;html=1;strokeColor=none;fillColor=none;align=center;verticalAlign=middle;whiteSpace=wrap;rounded=0;fontSize=20;" vertex="1" parent="1">
          <mxGeometry x="170" y="480" width="120" height="30" as="geometry" />
        </mxCell>
        <mxCell id="xWgYyd1IFgnipg2OSd_u-5" value="Entrada" style="text;html=1;strokeColor=none;fillColor=none;align=center;verticalAlign=middle;whiteSpace=wrap;rounded=0;fontSize=20;" vertex="1" parent="1">
          <mxGeometry x="220" y="60" width="120" height="30" as="geometry" />
        </mxCell>
        <mxCell id="xWgYyd1IFgnipg2OSd_u-12" value="" style="edgeStyle=orthogonalEdgeStyle;rounded=0;orthogonalLoop=1;jettySize=auto;html=1;fontSize=20;" edge="1" parent="1" source="xWgYyd1IFgnipg2OSd_u-6" target="xWgYyd1IFgnipg2OSd_u-10">
          <mxGeometry relative="1" as="geometry" />
        </mxCell>
        <mxCell id="xWgYyd1IFgnipg2OSd_u-6" value="2&lt;br&gt;Aguardando&lt;br&gt;extrator da gramp." style="rounded=1;whiteSpace=wrap;html=1;arcSize=24;fillColor=#ffffc0;strokeColor=#ff0000;shadow=0;comic=0;labelBackgroundColor=none;fontFamily=Verdana;fontSize=12;fontColor=#000000;align=center;" vertex="1" parent="1">
          <mxGeometry x="540" y="120" width="120" height="60" as="geometry" />
        </mxCell>
        <mxCell id="xWgYyd1IFgnipg2OSd_u-15" value="" style="edgeStyle=orthogonalEdgeStyle;rounded=0;orthogonalLoop=1;jettySize=auto;html=1;fontSize=12;" edge="1" parent="1" source="xWgYyd1IFgnipg2OSd_u-8" target="xWgYyd1IFgnipg2OSd_u-14">
          <mxGeometry relative="1" as="geometry" />
        </mxCell>
        <mxCell id="xWgYyd1IFgnipg2OSd_u-8" value="3&lt;br&gt;Aguarda entregar estator" style="rounded=1;whiteSpace=wrap;html=1;arcSize=24;fillColor=#ffffc0;strokeColor=#ff0000;shadow=0;comic=0;labelBackgroundColor=none;fontFamily=Verdana;fontSize=12;fontColor=#000000;align=center;" vertex="1" parent="1">
          <mxGeometry x="380" y="240" width="120" height="60" as="geometry" />
        </mxCell>
        <mxCell id="xWgYyd1IFgnipg2OSd_u-13" value="Sim" style="edgeStyle=orthogonalEdgeStyle;rounded=0;orthogonalLoop=1;jettySize=auto;html=1;fontSize=12;" edge="1" parent="1" source="xWgYyd1IFgnipg2OSd_u-10" target="xWgYyd1IFgnipg2OSd_u-8">
          <mxGeometry relative="1" as="geometry" />
        </mxCell>
        <mxCell id="xWgYyd1IFgnipg2OSd_u-10" value="Em posição?" style="rhombus;whiteSpace=wrap;html=1;" vertex="1" parent="1">
          <mxGeometry x="560" y="230" width="80" height="80" as="geometry" />
        </mxCell>
        <mxCell id="xWgYyd1IFgnipg2OSd_u-17" value="" style="edgeStyle=orthogonalEdgeStyle;rounded=0;orthogonalLoop=1;jettySize=auto;html=1;fontSize=12;" edge="1" parent="1" source="xWgYyd1IFgnipg2OSd_u-14" target="xWgYyd1IFgnipg2OSd_u-16">
          <mxGeometry relative="1" as="geometry" />
        </mxCell>
        <mxCell id="xWgYyd1IFgnipg2OSd_u-14" value="4&lt;br&gt;Fechando bandejas" style="rounded=1;whiteSpace=wrap;html=1;arcSize=24;fillColor=#ffffc0;strokeColor=#ff0000;shadow=0;comic=0;labelBackgroundColor=none;fontFamily=Verdana;fontSize=12;fontColor=#000000;align=center;" vertex="1" parent="1">
          <mxGeometry x="200" y="240" width="120" height="60" as="geometry" />
        </mxCell>
        <mxCell id="xWgYyd1IFgnipg2OSd_u-19" value="" style="edgeStyle=orthogonalEdgeStyle;rounded=0;orthogonalLoop=1;jettySize=auto;html=1;fontSize=12;" edge="1" parent="1" source="xWgYyd1IFgnipg2OSd_u-16" target="xWgYyd1IFgnipg2OSd_u-18">
          <mxGeometry relative="1" as="geometry" />
        </mxCell>
        <mxCell id="xWgYyd1IFgnipg2OSd_u-16" value="4&lt;br&gt;Aguardando extrator descer" style="rounded=1;whiteSpace=wrap;html=1;arcSize=24;fillColor=#ffffc0;strokeColor=#ff0000;shadow=0;comic=0;labelBackgroundColor=none;fontFamily=Verdana;fontSize=12;fontColor=#000000;align=center;" vertex="1" parent="1">
          <mxGeometry x="10" y="240" width="120" height="60" as="geometry" />
        </mxCell>
        <mxCell id="xWgYyd1IFgnipg2OSd_u-18" value="5&lt;br&gt;Avança transferidor" style="rounded=1;whiteSpace=wrap;html=1;arcSize=24;fillColor=#ffffc0;strokeColor=#ff0000;shadow=0;comic=0;labelBackgroundColor=none;fontFamily=Verdana;fontSize=12;fontColor=#000000;align=center;" vertex="1" parent="1">
          <mxGeometry x="10" y="350" width="120" height="60" as="geometry" />
        </mxCell>
      </root>
    </mxGraphModel>
  </diagram>
</mxfile>
